<svg width="968" height="439" viewBox="0 0 968 439" fill="none" xmlns="http://www.w3.org/2000/svg">
<path d="M913.5 2.50689e-06H410.21C407.038 -0.00181453 403.944 0.98417 401.358 2.82102C398.772 4.65786 396.823 7.2544 395.78 10.25C393.656 16.3824 389.673 21.7003 384.386 25.4641C379.099 29.2279 372.77 31.2505 366.28 31.2505C359.79 31.2505 353.461 29.2279 348.174 25.4641C342.887 21.7003 338.904 16.3824 336.78 10.25C335.738 7.26567 333.797 4.67762 331.223 2.84203C328.65 1.00644 325.571 0.0135455 322.41 2.50689e-06H53.91C53.91 7.07909 52.5155 14.0888 49.8061 20.6289C47.0968 27.169 43.1257 33.1114 38.1195 38.1166C33.1134 43.1218 27.1703 47.0918 20.6297 49.8C14.0891 52.5081 7.07909 53.9013 0 53.9V384.6C7.07909 384.599 14.0891 385.992 20.6297 388.7C27.1703 391.408 33.1134 395.378 38.1195 400.383C43.1257 405.389 47.0968 411.331 49.8061 417.871C52.5155 424.411 53.91 431.421 53.91 438.5H322.41C325.582 438.503 328.677 437.518 331.263 435.681C333.849 433.844 335.799 431.246 336.84 428.25C338.964 422.118 342.947 416.8 348.234 413.036C353.521 409.272 359.85 407.249 366.34 407.249C372.83 407.249 379.159 409.272 384.446 413.036C389.733 416.8 393.716 422.118 395.84 428.25C396.881 431.235 398.822 433.824 401.395 435.66C403.969 437.496 407.049 438.488 410.21 438.5H913.47C913.47 431.422 914.864 424.413 917.573 417.873C920.282 411.334 924.252 405.392 929.257 400.387C934.262 395.382 940.204 391.412 946.743 388.703C953.283 385.994 960.292 384.6 967.37 384.6V53.9C953.08 53.892 939.378 48.2098 929.276 38.1025C919.175 27.9951 913.5 14.29 913.5 2.50689e-06V2.50689e-06ZM363.72 46.88C363.698 46.5243 363.749 46.1679 363.87 45.8327C363.991 45.4975 364.179 45.1906 364.423 44.931C364.667 44.6713 364.962 44.4644 365.289 44.3229C365.616 44.1815 365.969 44.1085 366.325 44.1085C366.681 44.1085 367.034 44.1815 367.361 44.3229C367.688 44.4644 367.983 44.6713 368.227 44.931C368.471 45.1906 368.659 45.4975 368.78 45.8327C368.901 46.1679 368.952 46.5243 368.93 46.88V77.09C368.952 77.4457 368.901 77.8021 368.78 78.1373C368.659 78.4725 368.471 78.7794 368.227 79.039C367.983 79.2987 367.688 79.5056 367.361 79.647C367.034 79.7885 366.681 79.8615 366.325 79.8615C365.969 79.8615 365.616 79.7885 365.289 79.647C364.962 79.5056 364.667 79.2987 364.423 79.039C364.179 78.7794 363.991 78.4725 363.87 78.1373C363.749 77.8021 363.698 77.4457 363.72 77.09V46.88ZM363.72 98.62C363.698 98.2643 363.749 97.9079 363.87 97.5727C363.991 97.2375 364.179 96.9306 364.423 96.671C364.667 96.4113 364.962 96.2044 365.289 96.0629C365.616 95.9215 365.969 95.8485 366.325 95.8485C366.681 95.8485 367.034 95.9215 367.361 96.0629C367.688 96.2044 367.983 96.4113 368.227 96.671C368.471 96.9306 368.659 97.2375 368.78 97.5727C368.901 97.9079 368.952 98.2643 368.93 98.62V128.83C368.931 129.345 368.778 129.848 368.493 130.276C368.207 130.704 367.801 131.038 367.325 131.235C366.85 131.432 366.327 131.483 365.822 131.383C365.317 131.282 364.854 131.034 364.49 130.67C364.245 130.43 364.051 130.144 363.918 129.828C363.786 129.512 363.719 129.173 363.72 128.83V98.62ZM363.72 150.36C363.698 150.004 363.749 149.648 363.87 149.313C363.991 148.978 364.179 148.671 364.423 148.411C364.667 148.151 364.962 147.944 365.289 147.803C365.616 147.661 365.969 147.589 366.325 147.589C366.681 147.589 367.034 147.661 367.361 147.803C367.688 147.944 367.983 148.151 368.227 148.411C368.471 148.671 368.659 148.978 368.78 149.313C368.901 149.648 368.952 150.004 368.93 150.36V180.57C368.931 181.085 368.778 181.588 368.493 182.016C368.207 182.444 367.801 182.778 367.325 182.975C366.85 183.172 366.327 183.223 365.822 183.123C365.317 183.022 364.854 182.774 364.49 182.41C364.245 182.17 364.051 181.884 363.918 181.568C363.786 181.252 363.719 180.913 363.72 180.57V150.36ZM363.72 202.1C363.72 201.408 363.995 200.744 364.484 200.254C364.974 199.765 365.638 199.49 366.33 199.49C366.673 199.489 367.012 199.556 367.328 199.688C367.644 199.821 367.93 200.015 368.17 200.26C368.412 200.501 368.603 200.788 368.734 201.104C368.864 201.42 368.931 201.758 368.93 202.1V232.31C368.927 232.999 368.653 233.659 368.166 234.146C367.679 234.633 367.019 234.907 366.33 234.91C365.641 234.905 364.982 234.63 364.494 234.143C364.006 233.657 363.728 232.999 363.72 232.31V202.1ZM363.72 253.84C363.698 253.484 363.749 253.128 363.87 252.793C363.991 252.458 364.179 252.151 364.423 251.891C364.667 251.631 364.962 251.424 365.289 251.283C365.616 251.141 365.969 251.069 366.325 251.069C366.681 251.069 367.034 251.141 367.361 251.283C367.688 251.424 367.983 251.631 368.227 251.891C368.471 252.151 368.659 252.458 368.78 252.793C368.901 253.128 368.952 253.484 368.93 253.84V284.05C368.931 284.565 368.778 285.068 368.493 285.496C368.207 285.924 367.801 286.258 367.325 286.455C366.85 286.652 366.327 286.703 365.822 286.603C365.317 286.502 364.854 286.254 364.49 285.89C364.245 285.65 364.051 285.364 363.918 285.048C363.786 284.732 363.719 284.393 363.72 284.05V253.84ZM368.93 387.52C368.93 388.21 368.656 388.873 368.169 389.362C367.682 389.851 367.02 390.127 366.33 390.13C365.639 390.125 364.979 389.848 364.49 389.36C364.002 388.871 363.725 388.211 363.72 387.52V357.31C363.698 356.954 363.749 356.598 363.87 356.263C363.991 355.927 364.179 355.621 364.423 355.361C364.667 355.101 364.962 354.894 365.289 354.753C365.616 354.611 365.969 354.539 366.325 354.539C366.681 354.539 367.034 354.611 367.361 354.753C367.688 354.894 367.983 355.101 368.227 355.361C368.471 355.621 368.659 355.927 368.78 356.263C368.901 356.598 368.952 356.954 368.93 357.31V387.52ZM368.93 335.79C368.931 336.305 368.778 336.808 368.493 337.236C368.207 337.664 367.801 337.998 367.325 338.195C366.85 338.392 366.327 338.444 365.822 338.343C365.317 338.242 364.854 337.994 364.49 337.63L364.41 337.55C363.968 337.07 363.722 336.442 363.72 335.79V305.58C363.72 305.065 363.873 304.561 364.159 304.132C364.445 303.703 364.852 303.369 365.328 303.171C365.804 302.973 366.328 302.921 366.834 303.02C367.339 303.12 367.804 303.367 368.17 303.73C368.623 304.183 368.891 304.79 368.92 305.43C368.925 305.48 368.925 305.53 368.92 305.58L368.93 335.79Z" fill="url(#paint0_linear_102_2)"/>
<defs>
<linearGradient id="paint0_linear_102_2" x1="979.15" y1="75.77" x2="-749.33" y2="576.33" gradientUnits="userSpaceOnUse">
<stop stop-color="white"/>
<stop offset="1" stop-color="#CECECE"/>
</linearGradient>
</defs>
</svg>
